<?xml version="1.0" encoding="UTF-8" standalone="no"?><svg xmlns="http://www.w3.org/2000/svg" xmlns:xlink="http://www.w3.org/1999/xlink" contentScriptType="application/ecmascript" contentStyleType="text/css" height="695px" preserveAspectRatio="none" style="width:1056px;height:695px;background:#FFFFFF;" version="1.1" viewBox="0 0 1056 695" width="1056px" zoomAndPan="magnify"><defs><filter height="300%" id="fq1gwtefrms68" width="300%" x="-1" y="-1"><feGaussianBlur result="blurOut" stdDeviation="2.0"/><feColorMatrix in="blurOut" result="blurOut2" type="matrix" values="0 0 0 0 0 0 0 0 0 0 0 0 0 0 0 0 0 0 .4 0"/><feOffset dx="4.0" dy="4.0" in="blurOut2" result="blurOut3"/><feBlend in="SourceGraphic" in2="blurOut3" mode="normal"/></filter></defs><g><!--MD5=[c8ffe1ebc5ac90f537fe46e912343a18]
cluster Deployment--><polygon fill="#FFFFFF" filter="url(#fq1gwtefrms68)" points="132,6,234,6,241,28.2969,559,28.2969,559,136,132,136,132,6" style="stroke:#000000;stroke-width:1.5;"/><line style="stroke:#000000;stroke-width:1.5;" x1="132" x2="241" y1="28.2969" y2="28.2969"/><text fill="#000000" font-family="sans-serif" font-size="14" font-weight="bold" lengthAdjust="spacing" textLength="96" x="136" y="20.9951">Deployment</text><!--MD5=[4c47283f8f4945521e5705c9195ad83a]
cluster Node1--><polygon fill="#FFFFFF" filter="url(#fq1gwtefrms68)" points="30,428,40,418,452,418,452,678,442,688,30,688,30,428" style="stroke:#000000;stroke-width:1.5;"/><line style="stroke:#000000;stroke-width:1.5;" x1="442" x2="452" y1="428" y2="418"/><line style="stroke:#000000;stroke-width:1.5;" x1="30" x2="442" y1="428" y2="428"/><line style="stroke:#000000;stroke-width:1.5;" x1="442" x2="442" y1="428" y2="688"/><text fill="#000000" font-family="sans-serif" font-size="14" font-weight="bold" lengthAdjust="spacing" textLength="50" x="212" y="443.9951">Node1</text><!--MD5=[66dca9424da203280d0202d7f17b78d9]
cluster DS1--><polygon fill="#FFFFFF" filter="url(#fq1gwtefrms68)" points="54,466,152,466,159,488.2969,428,488.2969,428,563,54,563,54,466" style="stroke:#000000;stroke-width:1.5;"/><line style="stroke:#000000;stroke-width:1.5;" x1="54" x2="159" y1="488.2969" y2="488.2969"/><text fill="#000000" font-family="sans-serif" font-size="14" font-weight="bold" lengthAdjust="spacing" textLength="92" x="58" y="480.9951">DaemonSet</text><!--MD5=[25144ace6a4248ea8e897599dde1c343]
cluster Node2--><polygon fill="#FFFFFF" filter="url(#fq1gwtefrms68)" points="476,428,486,418,898,418,898,678,888,688,476,688,476,428" style="stroke:#000000;stroke-width:1.5;"/><line style="stroke:#000000;stroke-width:1.5;" x1="888" x2="898" y1="428" y2="418"/><line style="stroke:#000000;stroke-width:1.5;" x1="476" x2="888" y1="428" y2="428"/><line style="stroke:#000000;stroke-width:1.5;" x1="888" x2="888" y1="428" y2="688"/><text fill="#000000" font-family="sans-serif" font-size="14" font-weight="bold" lengthAdjust="spacing" textLength="50" x="658" y="443.9951">Node2</text><!--MD5=[f1682d57a3817c09a9c94d753de2ec22]
cluster DS2--><polygon fill="#FFFFFF" filter="url(#fq1gwtefrms68)" points="500,466,598,466,605,488.2969,874,488.2969,874,563,500,563,500,466" style="stroke:#000000;stroke-width:1.5;"/><line style="stroke:#000000;stroke-width:1.5;" x1="500" x2="605" y1="488.2969" y2="488.2969"/><text fill="#000000" font-family="sans-serif" font-size="14" font-weight="bold" lengthAdjust="spacing" textLength="92" x="504" y="480.9951">DaemonSet</text><!--MD5=[74194663ce6ffe37bf8e616e91b878be]
cluster ControlPlane--><polygon fill="#FFFFFF" filter="url(#fq1gwtefrms68)" points="16,195,26,185,988,185,988,359,978,369,16,369,16,195" style="stroke:#000000;stroke-width:1.5;"/><line style="stroke:#000000;stroke-width:1.5;" x1="978" x2="988" y1="195" y2="185"/><line style="stroke:#000000;stroke-width:1.5;" x1="16" x2="978" y1="195" y2="195"/><line style="stroke:#000000;stroke-width:1.5;" x1="978" x2="978" y1="195" y2="369"/><text fill="#000000" font-family="sans-serif" font-size="14" font-weight="bold" lengthAdjust="spacing" textLength="108" x="444" y="210.9951">control plane</text><!--MD5=[6a449d165e7288571682c9f52c1007ed]
cluster apiserver--><path d="M40,243 C40,233 442,233 442,233 C442,233 844,233 844,243 L844,335 C844,345 442,345 442,345 C442,345 40,345 40,335 L40,243 " fill="#ADD8E6" filter="url(#fq1gwtefrms68)" style="stroke:#000000;stroke-width:1.5;"/><path d="M40,243 C40,253 442,253 442,253 C442,253 844,253 844,243 " fill="none" style="stroke:#000000;stroke-width:1.5;"/><text fill="#000000" font-family="sans-serif" font-size="14" font-weight="bold" lengthAdjust="spacing" textLength="75" x="404.5" y="267.9951">apiserver</text><!--MD5=[276c0c5c39d9903c19ac92bdc2a2f06b]
cluster sedeploy--><polygon fill="#FFFFFF" filter="url(#fq1gwtefrms68)" points="795,14,1029,14,1036,36.2969,1039,36.2969,1039,128,795,128,795,14" style="stroke:#000000;stroke-width:1.5;"/><line style="stroke:#000000;stroke-width:1.5;" x1="795" x2="1036" y1="36.2969" y2="36.2969"/><text fill="#000000" font-family="sans-serif" font-size="14" font-weight="bold" lengthAdjust="spacing" textLength="228" x="799" y="28.9951">Deployment (or DaemonSet)</text><!--MD5=[0cf2f3c467d664366f72513a3d362c0a]
entity ControllerPlugin--><rect fill="#FFFF00" filter="url(#fq1gwtefrms68)" height="46.2969" style="stroke:#A80036;stroke-width:1.5;" width="178" x="365" y="57.5"/><rect fill="#FFFF00" height="10" style="stroke:#A80036;stroke-width:1.5;" width="15" x="523" y="62.5"/><rect fill="#FFFF00" height="2" style="stroke:#A80036;stroke-width:1.5;" width="4" x="521" y="64.5"/><rect fill="#FFFF00" height="2" style="stroke:#A80036;stroke-width:1.5;" width="4" x="521" y="68.5"/><text fill="#000000" font-family="sans-serif" font-size="14" lengthAdjust="spacing" textLength="138" x="380" y="90.4951">topolvm-controller</text><!--MD5=[172b509bccff96f5d110381e88ce6244]
entity sssidecars--><rect fill="#FFC0CB" filter="url(#fq1gwtefrms68)" height="78.8906" style="stroke:#A80036;stroke-width:1.5;" width="146" x="148" y="41"/><rect fill="#FFC0CB" height="10" style="stroke:#A80036;stroke-width:1.5;" width="15" x="274" y="46"/><rect fill="#FFC0CB" height="2" style="stroke:#A80036;stroke-width:1.5;" width="4" x="272" y="48"/><rect fill="#FFC0CB" height="2" style="stroke:#A80036;stroke-width:1.5;" width="4" x="272" y="52"/><text fill="#000000" font-family="sans-serif" font-size="14" lengthAdjust="spacing" textLength="106" x="163" y="73.9951">csi-provisioner</text><text fill="#000000" font-family="sans-serif" font-size="14" lengthAdjust="spacing" textLength="87" x="163" y="90.292">csi-attacher</text><text fill="#000000" font-family="sans-serif" font-size="14" lengthAdjust="spacing" textLength="74" x="163" y="106.5889">csi-resizer</text><!--MD5=[064039d43d85ac6c62bda883ce9170cf]
entity kubelet1--><rect fill="#ADD8E6" filter="url(#fq1gwtefrms68)" height="46.2969" style="stroke:#A80036;stroke-width:1.5;" width="96" x="137" y="626"/><rect fill="#ADD8E6" height="10" style="stroke:#A80036;stroke-width:1.5;" width="15" x="213" y="631"/><rect fill="#ADD8E6" height="2" style="stroke:#A80036;stroke-width:1.5;" width="4" x="211" y="633"/><rect fill="#ADD8E6" height="2" style="stroke:#A80036;stroke-width:1.5;" width="4" x="211" y="637"/><text fill="#000000" font-family="sans-serif" font-size="14" lengthAdjust="spacing" textLength="56" x="152" y="658.9951">kubelet</text><!--MD5=[7a523f0d41d6389602f30c16fd040960]
entity LVMd1--><rect fill="#FFFF00" filter="url(#fq1gwtefrms68)" height="46.2969" style="stroke:#A80036;stroke-width:1.5;" width="75" x="302.5" y="626"/><rect fill="#FFFF00" height="10" style="stroke:#A80036;stroke-width:1.5;" width="15" x="357.5" y="631"/><rect fill="#FFFF00" height="2" style="stroke:#A80036;stroke-width:1.5;" width="4" x="355.5" y="633"/><rect fill="#FFFF00" height="2" style="stroke:#A80036;stroke-width:1.5;" width="4" x="355.5" y="637"/><text fill="#000000" font-family="sans-serif" font-size="14" lengthAdjust="spacing" textLength="35" x="317.5" y="658.9951">lvmd</text><!--MD5=[c36c500b8273ae7ea2ca4b368633e3e8]
entity NodePlugin1--><rect fill="#FFFF00" filter="url(#fq1gwtefrms68)" height="46.2969" style="stroke:#A80036;stroke-width:1.5;" width="143" x="268.5" y="501"/><rect fill="#FFFF00" height="10" style="stroke:#A80036;stroke-width:1.5;" width="15" x="391.5" y="506"/><rect fill="#FFFF00" height="2" style="stroke:#A80036;stroke-width:1.5;" width="4" x="389.5" y="508"/><rect fill="#FFFF00" height="2" style="stroke:#A80036;stroke-width:1.5;" width="4" x="389.5" y="512"/><text fill="#000000" font-family="sans-serif" font-size="14" lengthAdjust="spacing" textLength="103" x="283.5" y="533.9951">topolvm-node</text><!--MD5=[dff4240b0baef029cf6faf1b93ff4e92]
entity dssidecars1--><rect fill="#FFC0CB" filter="url(#fq1gwtefrms68)" height="46.2969" style="stroke:#A80036;stroke-width:1.5;" width="127" x="70.5" y="501"/><rect fill="#FFC0CB" height="10" style="stroke:#A80036;stroke-width:1.5;" width="15" x="177.5" y="506"/><rect fill="#FFC0CB" height="2" style="stroke:#A80036;stroke-width:1.5;" width="4" x="175.5" y="508"/><rect fill="#FFC0CB" height="2" style="stroke:#A80036;stroke-width:1.5;" width="4" x="175.5" y="512"/><text fill="#000000" font-family="sans-serif" font-size="14" lengthAdjust="spacing" textLength="87" x="85.5" y="533.9951">csi-registrar</text><!--MD5=[4c38787f978660a5818f5cc2981399a0]
entity kubelet2--><rect fill="#ADD8E6" filter="url(#fq1gwtefrms68)" height="46.2969" style="stroke:#A80036;stroke-width:1.5;" width="96" x="583" y="626"/><rect fill="#ADD8E6" height="10" style="stroke:#A80036;stroke-width:1.5;" width="15" x="659" y="631"/><rect fill="#ADD8E6" height="2" style="stroke:#A80036;stroke-width:1.5;" width="4" x="657" y="633"/><rect fill="#ADD8E6" height="2" style="stroke:#A80036;stroke-width:1.5;" width="4" x="657" y="637"/><text fill="#000000" font-family="sans-serif" font-size="14" lengthAdjust="spacing" textLength="56" x="598" y="658.9951">kubelet</text><!--MD5=[21270a4c138c53d69c3ed1a688bf6d84]
entity LVMd2--><rect fill="#FFFF00" filter="url(#fq1gwtefrms68)" height="46.2969" style="stroke:#A80036;stroke-width:1.5;" width="75" x="748.5" y="626"/><rect fill="#FFFF00" height="10" style="stroke:#A80036;stroke-width:1.5;" width="15" x="803.5" y="631"/><rect fill="#FFFF00" height="2" style="stroke:#A80036;stroke-width:1.5;" width="4" x="801.5" y="633"/><rect fill="#FFFF00" height="2" style="stroke:#A80036;stroke-width:1.5;" width="4" x="801.5" y="637"/><text fill="#000000" font-family="sans-serif" font-size="14" lengthAdjust="spacing" textLength="35" x="763.5" y="658.9951">lvmd</text><!--MD5=[a88f1bfdcda1baa237150394ce5c4f8d]
entity NodePlugin2--><rect fill="#FFFF00" filter="url(#fq1gwtefrms68)" height="46.2969" style="stroke:#A80036;stroke-width:1.5;" width="143" x="714.5" y="501"/><rect fill="#FFFF00" height="10" style="stroke:#A80036;stroke-width:1.5;" width="15" x="837.5" y="506"/><rect fill="#FFFF00" height="2" style="stroke:#A80036;stroke-width:1.5;" width="4" x="835.5" y="508"/><rect fill="#FFFF00" height="2" style="stroke:#A80036;stroke-width:1.5;" width="4" x="835.5" y="512"/><text fill="#000000" font-family="sans-serif" font-size="14" lengthAdjust="spacing" textLength="103" x="729.5" y="533.9951">topolvm-node</text><!--MD5=[bd2ac8863c32fafcff26feca409fb1ab]
entity dssidecars2--><rect fill="#FFC0CB" filter="url(#fq1gwtefrms68)" height="46.2969" style="stroke:#A80036;stroke-width:1.5;" width="127" x="516.5" y="501"/><rect fill="#FFC0CB" height="10" style="stroke:#A80036;stroke-width:1.5;" width="15" x="623.5" y="506"/><rect fill="#FFC0CB" height="2" style="stroke:#A80036;stroke-width:1.5;" width="4" x="621.5" y="508"/><rect fill="#FFC0CB" height="2" style="stroke:#A80036;stroke-width:1.5;" width="4" x="621.5" y="512"/><text fill="#000000" font-family="sans-serif" font-size="14" lengthAdjust="spacing" textLength="87" x="531.5" y="533.9951">csi-registrar</text><!--MD5=[637ad760a824b4f188254bdb9f14c9f0]
entity scheduler--><rect fill="#ADD8E6" filter="url(#fq1gwtefrms68)" height="46.2969" style="stroke:#A80036;stroke-width:1.5;" width="109" x="862.5" y="283"/><rect fill="#ADD8E6" height="10" style="stroke:#A80036;stroke-width:1.5;" width="15" x="951.5" y="288"/><rect fill="#ADD8E6" height="2" style="stroke:#A80036;stroke-width:1.5;" width="4" x="949.5" y="290"/><rect fill="#ADD8E6" height="2" style="stroke:#A80036;stroke-width:1.5;" width="4" x="949.5" y="294"/><text fill="#000000" font-family="sans-serif" font-size="14" lengthAdjust="spacing" textLength="69" x="877.5" y="315.9951">scheduler</text><!--MD5=[bebdca5a4dea212d396a655c7c4aedfa]
entity CRD--><rect fill="#FFFF00" filter="url(#fq1gwtefrms68)" height="46.2969" style="stroke:#A80036;stroke-width:1.5;" width="185" x="522.5" y="283"/><rect fill="#FFFF00" height="10" style="stroke:#A80036;stroke-width:1.5;" width="15" x="687.5" y="288"/><rect fill="#FFFF00" height="2" style="stroke:#A80036;stroke-width:1.5;" width="4" x="685.5" y="290"/><rect fill="#FFFF00" height="2" style="stroke:#A80036;stroke-width:1.5;" width="4" x="685.5" y="294"/><text fill="#000000" font-family="sans-serif" font-size="14" lengthAdjust="spacing" textLength="145" x="537.5" y="315.9951">LogicalVolume(CRD)</text><!--MD5=[f0dd65764a59ca0a6cbc9031d5a45c41]
entity PVC--><rect fill="#FEFECE" filter="url(#fq1gwtefrms68)" height="46.2969" style="stroke:#A80036;stroke-width:1.5;" width="208" x="56" y="283"/><rect fill="#FEFECE" height="10" style="stroke:#A80036;stroke-width:1.5;" width="15" x="244" y="288"/><rect fill="#FEFECE" height="2" style="stroke:#A80036;stroke-width:1.5;" width="4" x="242" y="290"/><rect fill="#FEFECE" height="2" style="stroke:#A80036;stroke-width:1.5;" width="4" x="242" y="294"/><text fill="#000000" font-family="sans-serif" font-size="14" lengthAdjust="spacing" textLength="168" x="71" y="315.9951">PersistentVolumeClaim</text><!--MD5=[ad52b7ae1a757a17ad46c85a5561978d]
entity PodResource--><rect fill="#FEFECE" filter="url(#fq1gwtefrms68)" height="46.2969" style="stroke:#A80036;stroke-width:1.5;" width="67" x="420.5" y="283"/><rect fill="#FEFECE" height="10" style="stroke:#A80036;stroke-width:1.5;" width="15" x="467.5" y="288"/><rect fill="#FEFECE" height="2" style="stroke:#A80036;stroke-width:1.5;" width="4" x="465.5" y="290"/><rect fill="#FEFECE" height="2" style="stroke:#A80036;stroke-width:1.5;" width="4" x="465.5" y="294"/><text fill="#000000" font-family="sans-serif" font-size="14" lengthAdjust="spacing" textLength="27" x="435.5" y="315.9951">Pod</text><!--MD5=[871084c9af4a1c8185954d7e7ec4a30a]
entity NodeResource1--><rect fill="#FEFECE" filter="url(#fq1gwtefrms68)" height="46.2969" style="stroke:#A80036;stroke-width:1.5;" width="86" x="299" y="283"/><rect fill="#FEFECE" height="10" style="stroke:#A80036;stroke-width:1.5;" width="15" x="365" y="288"/><rect fill="#FEFECE" height="2" style="stroke:#A80036;stroke-width:1.5;" width="4" x="363" y="290"/><rect fill="#FEFECE" height="2" style="stroke:#A80036;stroke-width:1.5;" width="4" x="363" y="294"/><text fill="#000000" font-family="sans-serif" font-size="14" lengthAdjust="spacing" textLength="46" x="314" y="315.9951">Node1</text><!--MD5=[e6e4d90082ef659fa187c3c17cfa59ea]
entity NodeResource2--><rect fill="#FEFECE" filter="url(#fq1gwtefrms68)" height="46.2969" style="stroke:#A80036;stroke-width:1.5;" width="85" x="742.5" y="283"/><rect fill="#FEFECE" height="10" style="stroke:#A80036;stroke-width:1.5;" width="15" x="807.5" y="288"/><rect fill="#FEFECE" height="2" style="stroke:#A80036;stroke-width:1.5;" width="4" x="805.5" y="290"/><rect fill="#FEFECE" height="2" style="stroke:#A80036;stroke-width:1.5;" width="4" x="805.5" y="294"/><text fill="#000000" font-family="sans-serif" font-size="14" lengthAdjust="spacing" textLength="45" x="757.5" y="315.9951">Node2</text><!--MD5=[051be2fd78f954f5152ae04633b10bc0]
entity se--><rect fill="#FFFF00" filter="url(#fq1gwtefrms68)" height="62.5938" style="stroke:#A80036;stroke-width:1.5;" width="186" x="824" y="49"/><rect fill="#FFFF00" height="10" style="stroke:#A80036;stroke-width:1.5;" width="15" x="990" y="54"/><rect fill="#FFFF00" height="2" style="stroke:#A80036;stroke-width:1.5;" width="4" x="988" y="56"/><rect fill="#FFFF00" height="2" style="stroke:#A80036;stroke-width:1.5;" width="4" x="988" y="60"/><text fill="#000000" font-family="sans-serif" font-size="14" lengthAdjust="spacing" textLength="141" x="839" y="81.9951">Scheduler Extender</text><text fill="#000000" font-family="sans-serif" font-size="14" lengthAdjust="spacing" textLength="146" x="839" y="98.292">(topolvm-scheduler)</text><!--MD5=[d11cec7bdf278d44d652d8860818bc39]
reverse link NodeResource1 to NodePlugin1--><path d="M341.747,334.375 C341.346,377.652 340.574,461.03 340.205,500.819 " fill="none" id="NodeResource1-backto-NodePlugin1" style="stroke:#A80036;stroke-width:1.0;"/><polygon fill="#A80036" points="341.793,329.302,337.7109,338.2651,341.7473,334.3018,345.7106,338.3382,341.793,329.302" style="stroke:#A80036;stroke-width:1.0;"/><text fill="#000000" font-family="sans-serif" font-size="13" lengthAdjust="spacing" textLength="59" x="343" y="398.0669">Annotate</text><!--MD5=[ac83026f3469fb433bec4ce8cc1e4c52]
link NodePlugin1 to LVMd1--><path d="M340,547.274 C340,567.912 340,598.663 340,620.7547 " fill="none" id="NodePlugin1-to-LVMd1" style="stroke:#0000FF;stroke-width:1.0;"/><polygon fill="#0000FF" points="340,625.8913,344,616.8913,340,620.8913,336,616.8913,340,625.8913" style="stroke:#0000FF;stroke-width:1.0;"/><text fill="#000000" font-family="sans-serif" font-size="13" lengthAdjust="spacing" textLength="34" x="341" y="592.0669">gRPC</text><!--MD5=[c1e2cab0624728cff11e886dd5efb566]
reverse link NodePlugin1 to kubelet1--><path d="M307.885,550.484 C279.845,572.736 239.564,604.7005 212.861,625.8913 " fill="none" id="NodePlugin1-backto-kubelet1" style="stroke:#0000FF;stroke-width:1.0;"/><polygon fill="#0000FF" points="311.931,547.274,302.3951,549.7371,308.015,550.3828,307.3692,556.0027,311.931,547.274" style="stroke:#0000FF;stroke-width:1.0;"/><text fill="#000000" font-family="sans-serif" font-size="13" lengthAdjust="spacing" textLength="34" x="273" y="592.0669">gRPC</text><!--MD5=[2080e3f9dde9da94be2a60a1045b217b]
reverse link dssidecars1 to kubelet1--><path d="M144.876,551.852 C150.285,565.149 156.945,581.436 163,596 C167.064,605.7755 171.615,616.5578 175.518,625.7576 " fill="none" id="dssidecars1-backto-kubelet1" style="stroke:#0000FF;stroke-width:1.0;"/><polygon fill="#0000FF" points="142.943,547.096,142.6259,556.9398,144.8255,551.7281,150.0372,553.9277,142.943,547.096" style="stroke:#0000FF;stroke-width:1.0;"/><text fill="#000000" font-family="sans-serif" font-size="13" lengthAdjust="spacing" textLength="34" x="164" y="592.0669">gRPC</text><!--MD5=[2cde2590b446bd2256c3dfbd1aad6584]
link dssidecars1 to NodePlugin1--><path d="M197.769,524 C218.444,524 241.599,524 263.125,524 " fill="none" id="dssidecars1-to-NodePlugin1" style="stroke:#0000FF;stroke-width:1.0;"/><polygon fill="#0000FF" points="268.268,524,259.268,520,263.268,524,259.268,528,268.268,524" style="stroke:#0000FF;stroke-width:1.0;"/><text fill="#000000" font-family="sans-serif" font-size="13" lengthAdjust="spacing" textLength="34" x="216" y="517.0669">gRPC</text><!--MD5=[e4e3aee3168ec2a52de67ef5f917c8d0]
reverse link NodeResource2 to NodePlugin2--><path d="M785.127,334.375 C785.327,377.652 785.713,461.03 785.897,500.819 " fill="none" id="NodeResource2-backto-NodePlugin2" style="stroke:#A80036;stroke-width:1.0;"/><polygon fill="#A80036" points="785.103,329.302,781.1442,338.3202,785.1259,334.3019,789.1441,338.2836,785.103,329.302" style="stroke:#A80036;stroke-width:1.0;"/><text fill="#000000" font-family="sans-serif" font-size="13" lengthAdjust="spacing" textLength="59" x="786" y="398.0669">Annotate</text><!--MD5=[c039b6a56e28dde57b9bb2944ccbb382]
link NodePlugin2 to LVMd2--><path d="M786,547.274 C786,567.912 786,598.663 786,620.7547 " fill="none" id="NodePlugin2-to-LVMd2" style="stroke:#0000FF;stroke-width:1.0;"/><polygon fill="#0000FF" points="786,625.8913,790,616.8913,786,620.8913,782,616.8913,786,625.8913" style="stroke:#0000FF;stroke-width:1.0;"/><text fill="#000000" font-family="sans-serif" font-size="13" lengthAdjust="spacing" textLength="34" x="787" y="592.0669">gRPC</text><!--MD5=[6e026765de0d0b9c30861d2f192b9ace]
reverse link NodePlugin2 to kubelet2--><path d="M753.885,550.484 C725.845,572.736 685.564,604.7005 658.861,625.8913 " fill="none" id="NodePlugin2-backto-kubelet2" style="stroke:#0000FF;stroke-width:1.0;"/><polygon fill="#0000FF" points="757.931,547.274,748.3951,549.7371,754.015,550.3828,753.3692,556.0027,757.931,547.274" style="stroke:#0000FF;stroke-width:1.0;"/><text fill="#000000" font-family="sans-serif" font-size="13" lengthAdjust="spacing" textLength="34" x="719" y="592.0669">gRPC</text><!--MD5=[70689e281931389cea779902e8549bc7]
reverse link dssidecars2 to kubelet2--><path d="M590.876,551.852 C596.285,565.149 602.945,581.436 609,596 C613.064,605.7755 617.615,616.5578 621.518,625.7576 " fill="none" id="dssidecars2-backto-kubelet2" style="stroke:#0000FF;stroke-width:1.0;"/><polygon fill="#0000FF" points="588.943,547.096,588.6259,556.9398,590.8255,551.7281,596.0372,553.9277,588.943,547.096" style="stroke:#0000FF;stroke-width:1.0;"/><text fill="#000000" font-family="sans-serif" font-size="13" lengthAdjust="spacing" textLength="34" x="610" y="592.0669">gRPC</text><!--MD5=[10bfaaf852455fc896741df96b3eb3d4]
link dssidecars2 to NodePlugin2--><path d="M643.769,524 C664.444,524 687.599,524 709.125,524 " fill="none" id="dssidecars2-to-NodePlugin2" style="stroke:#0000FF;stroke-width:1.0;"/><polygon fill="#0000FF" points="714.268,524,705.268,520,709.268,524,705.268,528,714.268,524" style="stroke:#0000FF;stroke-width:1.0;"/><text fill="#000000" font-family="sans-serif" font-size="13" lengthAdjust="spacing" textLength="34" x="662" y="517.0669">gRPC</text><!--MD5=[558d4cd558522c69a2cd14768428a7e4]
link ControllerPlugin to CRD--><path d="M478.858,103.661 C492.978,116.923 510.478,134.548 524,152 C556.025,193.331 585.465,246.855 601.75,278.405 " fill="none" id="ControllerPlugin-to-CRD" style="stroke:#A80036;stroke-width:1.0;"/><polygon fill="#A80036" points="604.056,282.896,603.5057,273.0625,601.7732,278.4475,596.3882,276.715,604.056,282.896" style="stroke:#A80036;stroke-width:1.0;"/><text fill="#000000" font-family="sans-serif" font-size="13" lengthAdjust="spacing" textLength="88" x="537" y="165.0669">Create/Watch</text><!--MD5=[7df3f983b8d96882ad368f410d135ed6]
link ControllerPlugin to NodeResource1--><path d="M435.732,103.73 C425.268,117.157 412.391,134.925 403,152 C379.848,194.098 360.811,246.839 350.46,278.121 " fill="none" id="ControllerPlugin-to-NodeResource1" style="stroke:#A80036;stroke-width:1.0;"/><polygon fill="#A80036" points="348.874,282.952,355.4819,275.6488,350.4337,278.2015,347.881,273.1533,348.874,282.952" style="stroke:#A80036;stroke-width:1.0;"/><text fill="#000000" font-family="sans-serif" font-size="13" lengthAdjust="spacing" textLength="41" x="404" y="165.0669">Watch</text><!--MD5=[9c0486e297b58adfb457d9ea587dda6b]
link ControllerPlugin to NodeResource2--><path d="M543.021,94.631 C600.822,107.189 674.516,131.306 725,177 C754.806,203.978 771.034,248.838 778.857,277.65 " fill="none" id="ControllerPlugin-to-NodeResource2" style="stroke:#A80036;stroke-width:1.0;"/><polygon fill="#A80036" points="780.221,282.835,781.801,273.1137,778.9496,277.9993,774.0639,275.148,780.221,282.835" style="stroke:#A80036;stroke-width:1.0;"/><text fill="#000000" font-family="sans-serif" font-size="13" lengthAdjust="spacing" textLength="41" x="715" y="165.0669">Watch</text><!--MD5=[bd964209a66624947948b986ac78b077]
reverse link ControllerPlugin to PodResource--><path d="M454,108.993 C454,153.814 454,241.744 454,282.843 " fill="none" id="ControllerPlugin-backto-PodResource" style="stroke:#A80036;stroke-width:1.0;"/><polygon fill="#A80036" points="454,103.747,450,112.747,454,108.747,458,112.747,454,103.747" style="stroke:#A80036;stroke-width:1.0;"/><text fill="#000000" font-family="sans-serif" font-size="13" lengthAdjust="spacing" textLength="60" x="455" y="165.0669">Webhook</text><!--MD5=[20364ff4e515344874ac30761520feff]
reverse link CRD to NodePlugin1--><path d="M582.733,332.344 C528.459,374.974 419.791,460.328 368.303,500.769 " fill="none" id="CRD-backto-NodePlugin1" style="stroke:#A80036;stroke-width:1.0;"/><polygon fill="#A80036" points="586.863,329.101,577.3147,331.5155,582.9312,332.1899,582.2569,337.8064,586.863,329.101" style="stroke:#A80036;stroke-width:1.0;"/><text fill="#000000" font-family="sans-serif" font-size="13" lengthAdjust="spacing" textLength="91" x="512" y="398.0669">Watch/Update</text><!--MD5=[a76d35601ff7b85e89ecb87427da31dc]
reverse link CRD to NodePlugin2--><path d="M633.445,333.46 C647.064,352.731 666.241,379.32 684,402 C711.609,437.261 745.412,476.674 766.328,500.657 " fill="none" id="CRD-backto-NodePlugin2" style="stroke:#A80036;stroke-width:1.0;"/><polygon fill="#A80036" points="630.453,329.218,632.3712,338.8783,633.3347,333.3041,638.9089,334.2676,630.453,329.218" style="stroke:#A80036;stroke-width:1.0;"/><text fill="#000000" font-family="sans-serif" font-size="13" lengthAdjust="spacing" textLength="91" x="685" y="398.0669">Watch/Update</text><!--MD5=[4091e7ebbb40106ce3abd66344b094d7]
reverse link se to scheduler--><path d="M917,117.35 C917,164.017 917,244.164 917,282.841 " fill="none" id="se-backto-scheduler" style="stroke:#A80036;stroke-width:1.0;"/><polygon fill="#A80036" points="917,112.108,913,121.108,917,117.108,921,121.108,917,112.108" style="stroke:#A80036;stroke-width:1.0;"/><!--MD5=[709870048a2d24ea4e91dfd4e8b2f10f]
link sssidecars to PVC--><path d="M210.444,120.176 C198.174,165.134 178.234,238.192 167.466,277.644 " fill="none" id="sssidecars-to-PVC" style="stroke:#A80036;stroke-width:1.0;"/><polygon fill="#A80036" points="166.073,282.75,172.3022,275.1213,167.3899,277.9265,164.5847,273.0142,166.073,282.75" style="stroke:#A80036;stroke-width:1.0;"/><text fill="#000000" font-family="sans-serif" font-size="13" lengthAdjust="spacing" textLength="41" x="203" y="165.0669">Watch</text><!--MD5=[4e955b180415532e4e396084a9dc8582]
link sssidecars to ControllerPlugin--><path d="M294.083,80.5 C314.84,80.5 337.743,80.5 359.573,80.5 " fill="none" id="sssidecars-to-ControllerPlugin" style="stroke:#0000FF;stroke-width:1.0;"/><polygon fill="#0000FF" points="364.801,80.5,355.801,76.5,359.801,80.5,355.801,84.5,364.801,80.5" style="stroke:#0000FF;stroke-width:1.0;"/><text fill="#000000" font-family="sans-serif" font-size="13" lengthAdjust="spacing" textLength="34" x="312.5" y="73.5669">gRPC</text><!--MD5=[b4904d676d6d85de1abea6c28842af57]
@startuml
package "Deployment" {
  [ControllerPlugin] as "topolvm-controller" #Yellow
  [sssidecars] as "csi-provisioner\ncsi-attacher\ncsi-resizer" #Pink
}

node Node1 as "Node1" {

  package DS1 as "DaemonSet" {
    [NodePlugin1] as "topolvm-node" #Yellow
    [dssidecars1] as "csi-registrar" #Pink
  }

  [kubelet1] as "kubelet" #LightBlue

  [LVMd1] as "lvmd" #Yellow
}

node Node2 as "Node2" {

  package DS2 as "DaemonSet" {
    [NodePlugin2] as "topolvm-node" #Yellow
    [dssidecars2] as "csi-registrar" #Pink
  }

  [kubelet2] as "kubelet" #LightBlue

  [LVMd2] as "lvmd" #Yellow
}

node ControlPlane as "control plane" {
  [scheduler] #LightBlue
  database "apiserver" #LightBlue {
    [CRD] as "LogicalVolume(CRD)" #Yellow
    [PVC] as "PersistentVolumeClaim"
    [PodResource] as "Pod" 
    [NodeResource1] as "Node1"
    [NodeResource2] as "Node2"
  }
}

package sedeploy as "Deployment (or DaemonSet)" {
  [se] as "Scheduler Extender\n(topolvm-scheduler)" #Yellow
}

NodePlugin1 -up-> NodeResource1 : Annotate
NodePlugin1 -[#blue]down-> LVMd1 : gRPC
kubelet1 -[#blue]up-> NodePlugin1 :gRPC
kubelet1 -[#blue]up-> dssidecars1 :gRPC
dssidecars1 -[#blue]> NodePlugin1 : gRPC

NodePlugin2 -up-> NodeResource2 : Annotate
NodePlugin2 -[#blue]down-> LVMd2 : gRPC
kubelet2 -[#blue]up-> NodePlugin2 : gRPC
kubelet2 -[#blue]up-> dssidecars2 :gRPC
dssidecars2 -[#blue]> NodePlugin2 : gRPC

ControllerPlugin -down-> CRD : Create/Watch
ControllerPlugin -down-> NodeResource1 : Watch
ControllerPlugin -down-> NodeResource2 : Watch
PodResource -up-> ControllerPlugin : Webhook
NodePlugin1 -up-> CRD : Watch/Update
NodePlugin2 -up-> CRD : Watch/Update

scheduler -up-> se

sssidecars -down-> PVC : Watch
sssidecars -[#blue]> ControllerPlugin : gRPC
@enduml

PlantUML version 1.2021.11beta6(Unknown compile time)
(GPL source distribution)
Java Runtime: Java(TM) SE Runtime Environment
JVM: Java HotSpot(TM) 64-Bit Server VM
Default Encoding: UTF-8
Language: en
Country: US
--></g></svg>